<?xml version="1.0" encoding="UTF-8"?>
<!DOCTYPE svg PUBLIC "-//W3C//DTD SVG 1.1//EN" "http://www.w3.org/Graphics/SVG/1.1/DTD/svg11.dtd">
<!-- Creator: CorelDRAW 2019 (64-Bit) -->
<svg xmlns="http://www.w3.org/2000/svg" xml:space="preserve" width="84.6666mm" height="84.6666mm" version="1.1" style="shape-rendering:geometricPrecision; text-rendering:geometricPrecision; image-rendering:optimizeQuality; fill-rule:evenodd; clip-rule:evenodd"
viewBox="0 0 8466.66 8466.66"
 xmlns:xlink="http://www.w3.org/1999/xlink"
 xmlns:xodm="http://www.corel.com/coreldraw/odm/2003">
 <defs>
  <style type="text/css">
   <![CDATA[
    .fil0 {fill:black}
    .fil1 {fill:#F3F3F6}
   ]]>
  </style>
 </defs>
 <g id="Layer_x0020_1">
  <metadata id="CorelCorpID_0Corel-Layer"/>
  <rect class="fil0" x="-0.01" y="-0.01" width="8466.67" height="8466.67"/>
  <path class="fil1" d="M7438.53 2410.6c-24.88,-300.52 -40.83,-581.24 -47.13,-844.27 -249.72,167.31 -672.82,373.66 -1270.05,621.22 -1681.81,750.14 -2126.26,1902.27 -2011.68,3603.22 14.73,218.49 75.83,856.27 30.81,1048.27 427,-193.51 822.82,-343.89 1187.5,-451.18 2060.88,-709.32 2345.27,-2049.68 2110.55,-3977.26z"/>
  <path class="fil1" d="M1433.41 5750.23c-417.88,-493.28 -559.6,-1295.31 -425.22,-2406.14 503.72,155.51 973.86,293.8 1410.45,414.87 977.15,435.52 1308.2,1158.24 1241.78,2178.48 -21.96,337.58 -28.03,658.94 -18.01,963.97 -1180.82,-340.03 -1917.14,-723.76 -2209,-1151.18z"/>
 </g>
</svg>
