<?xml version="1.0" encoding="utf-8"?>
<!-- Generator: Adobe Illustrator 26.4.0, SVG Export Plug-In . SVG Version: 6.00 Build 0)  -->
<svg version="1.1" id="Layer_1" xmlns="http://www.w3.org/2000/svg" xmlns:xlink="http://www.w3.org/1999/xlink" x="0px" y="0px"
	 viewBox="0 0 1000 1000" style="enable-background:new 0 0 1000 1000;" xml:space="preserve">
<style type="text/css">
	.st0{fill:#FFFFFF;}
</style>
<g>
	<path class="st0" d="M747.4,417.5c-7.1-1.7-12.8-6.6-15.6-13.3c-2.8-6.7-2.2-14.2,1.6-20.4c20.8-34.2,15.8-76.2-12.5-104.5
		c-28.4-28.3-70.3-33.3-104.5-12.5c-6.2,3.8-13.7,4.3-20.4,1.6c-6.7-2.8-11.6-8.5-13.3-15.6c-9.4-38.9-42.6-65-82.7-65
		c-40,0-73.3,26.1-82.7,65c-1.7,7-6.6,12.7-13.3,15.5c-6.7,2.8-14.2,2.2-20.4-1.6c-34.2-20.8-76.2-15.8-104.5,12.5
		s-33.3,70.3-12.5,104.5c3.8,6.2,4.4,13.6,1.6,20.4c-2.8,6.7-8.5,11.6-15.6,13.3c-38.9,9.4-65,42.7-65,82.7s26.1,73.3,65,82.7
		c7.1,1.7,12.8,6.6,15.6,13.3s2.2,14.2-1.6,20.4c-20.8,34.2-15.8,76.2,12.5,104.5s70.3,33.4,104.5,12.5c6.1-3.8,13.6-4.5,20.4-1.6
		c6.7,2.7,11.6,8.4,13.3,15.5c9.4,38.9,42.7,65.1,82.7,65.1s73.3-26.1,82.7-64.9c1.7-7.1,6.6-12.8,13.3-15.6s14.2-2.2,20.4,1.6
		c34.2,20.9,76.2,15.8,104.5-12.5s33.3-70.3,12.5-104.5c-3.8-6.2-4.4-13.7-1.6-20.4c2.7-6.7,8.4-11.6,15.5-13.3
		c38.9-9.4,65.1-42.7,65.1-82.7S786.3,426.9,747.4,417.5z M732.7,522.1c-26.7,6.4-48.1,24.7-58.6,50.1s-8.3,53.4,6,76.9
		c8.6,14.1-0.4,24.8-3.3,27.8c-3,2.9-13.8,11.9-27.8,3.3c-23.6-14.3-51.5-16.5-76.9-5.9c-25.4,10.5-43.6,31.8-50.1,58.5
		c-3.9,16-17.8,17.3-22,17.3s-18.1-1.3-22-17.3c-6.4-26.7-24.7-48.1-50.1-58.6c-10.6-4.4-21.7-6.6-32.7-6.6
		c-15.4,0-30.6,4.2-44.2,12.5c-14.2,8.5-24.9-0.4-27.8-3.3c-2.9-3-11.9-13.7-3.3-27.8c14.3-23.5,16.5-51.5,6-76.9
		c-10.6-25.4-31.9-43.6-58.6-50.1c-16-3.9-17.3-17.8-17.3-22s1.3-18.1,17.3-22c26.7-6.5,48-24.6,58.5-50s8.3-53.4-6-76.9
		c-8.6-14.1,0.3-24.9,3.3-27.8c2.9-2.9,13.6-12,27.8-3.3c23.5,14.3,51.5,16.5,76.9,6c25.4-10.6,43.6-31.9,50.1-58.6
		c3.9-16.1,17.8-17.3,22-17.3s18.1,1.2,22,17.3c6.4,26.7,24.7,48.1,50.1,58.6s53.5,8.3,76.9-6c14-8.6,24.8,0.3,27.8,3.3
		c2.9,3,11.9,13.7,3.3,27.8c-14.3,23.5-16.4,51.5-5.9,76.9s31.9,43.6,58.6,50.1c16,3.9,17.3,17.8,17.3,22S748.7,518.2,732.7,522.1z"
		/>
	<path class="st0" d="M500,375c-68.9,0-125,56.1-125,125s56.1,125,125,125s125-56.1,125-125S568.9,375,500,375z M500,562.5
		c-34.5,0-62.5-28-62.5-62.5s28-62.5,62.5-62.5s62.5,28,62.5,62.5S534.5,562.5,500,562.5z"/>
</g>
</svg>
