<?xml version="1.0" encoding="utf-8"?>
<!-- Generator: Adobe Illustrator 26.3.1, SVG Export Plug-In . SVG Version: 6.00 Build 0)  -->
<svg version="1.1" id="Layer_1" xmlns="http://www.w3.org/2000/svg" xmlns:xlink="http://www.w3.org/1999/xlink" x="0px" y="0px"
	 viewBox="0 0 1000 1000" style="enable-background:new 0 0 1000 1000;" xml:space="preserve">
<style type="text/css">
	.st0{fill:#FFFFFF;}
</style>
<path class="st0" d="M544.2,500l165.4-165.4c12.2-12.2,12.2-32,0-44.2s-32-12.2-44.2,0L500,455.8L334.6,290.4
	c-12.2-12.2-32-12.2-44.2,0s-12.2,32,0,44.2L455.8,500L290.4,665.4c-12.2,12.2-12.2,32,0,44.2s32,12.2,44.2,0L500,544.2l165.4,165.4
	c6.1,6.1,14.1,9.2,22.1,9.2s16-3.1,22.1-9.2c12.2-12.2,12.2-32,0-44.2L544.2,500z"/>
</svg>
