<?xml version="1.0" encoding="utf-8"?>
<!-- Generator: Adobe Illustrator 26.4.0, SVG Export Plug-In . SVG Version: 6.00 Build 0)  -->
<svg version="1.1" id="Layer_1" xmlns="http://www.w3.org/2000/svg" xmlns:xlink="http://www.w3.org/1999/xlink" x="0px" y="0px"
	 viewBox="0 0 1000 1000" style="enable-background:new 0 0 1000 1000;" xml:space="preserve">
<path d="M549.7,500l186-186c13.7-13.7,13.7-36,0-49.7c-13.7-13.7-36-13.7-49.7,0l-186,186l-186-186c-13.7-13.7-36-13.7-49.7,0
	c-13.7,13.7-13.7,36,0,49.7l186,186l-186,186c-13.7,13.7-13.7,36,0,49.7c13.7,13.7,36,13.7,49.7,0l186-186l186,186
	c6.9,6.9,15.8,10.3,24.8,10.3s18-3.5,24.8-10.3c13.7-13.7,13.7-36,0-49.7L549.7,500z"/>
</svg>
